<svg width="41" height="40" viewBox="0 0 41 40" fill="none" xmlns="http://www.w3.org/2000/svg">
<path d="M11.2786 32C10.6459 32 10.1079 31.7785 9.66459 31.3354C9.22153 30.8921 9 30.3541 9 29.7214C9 29.0887 9.22153 28.5507 9.66459 28.1074C10.1079 27.6641 10.6459 27.4424 11.2786 27.4424C11.9113 27.4424 12.4493 27.6641 12.8926 28.1074C13.3359 28.5507 13.5576 29.0887 13.5576 29.7214C13.5576 30.3541 13.3359 30.8921 12.8926 31.3354C12.4493 31.7785 11.9113 32 11.2786 32ZM21 32C20.3673 32 19.8293 31.7785 19.386 31.3354C18.9427 30.8921 18.721 30.3541 18.721 29.7214C18.721 29.0887 18.9427 28.5507 19.386 28.1074C19.8293 27.6641 20.3673 27.4424 21 27.4424C21.6327 27.4424 22.1707 27.6641 22.614 28.1074C23.0573 28.5507 23.279 29.0887 23.279 29.7214C23.279 30.3541 23.0573 30.8921 22.614 31.3354C22.1707 31.7785 21.6327 32 21 32ZM30.7214 32C30.0887 32 29.5507 31.7785 29.1074 31.3354C28.6641 30.8921 28.4424 30.3541 28.4424 29.7214C28.4424 29.0887 28.6641 28.5507 29.1074 28.1074C29.5507 27.6641 30.0887 27.4424 30.7214 27.4424C31.3541 27.4424 31.8921 27.6641 32.3354 28.1074C32.7785 28.5507 33 29.0887 33 29.7214C33 30.3541 32.7785 30.8921 32.3354 31.3354C31.8921 31.7785 31.3541 32 30.7214 32ZM11.2786 22.279C10.6459 22.279 10.1079 22.0573 9.66459 21.614C9.22153 21.1707 9 20.6327 9 20C9 19.3673 9.22153 18.8293 9.66459 18.386C10.1079 17.9427 10.6459 17.721 11.2786 17.721C11.9113 17.721 12.4493 17.9427 12.8926 18.386C13.3359 18.8293 13.5576 19.3673 13.5576 20C13.5576 20.6327 13.3359 21.1707 12.8926 21.614C12.4493 22.0573 11.9113 22.279 11.2786 22.279ZM21 22.279C20.3673 22.279 19.8293 22.0573 19.386 21.614C18.9427 21.1707 18.721 20.6327 18.721 20C18.721 19.3673 18.9427 18.8293 19.386 18.386C19.8293 17.9427 20.3673 17.721 21 17.721C21.6327 17.721 22.1707 17.9427 22.614 18.386C23.0573 18.8293 23.279 19.3673 23.279 20C23.279 20.6327 23.0573 21.1707 22.614 21.614C22.1707 22.0573 21.6327 22.279 21 22.279ZM30.7214 22.279C30.0887 22.279 29.5507 22.0573 29.1074 21.614C28.6641 21.1707 28.4424 20.6327 28.4424 20C28.4424 19.3673 28.6641 18.8293 29.1074 18.386C29.5507 17.9427 30.0887 17.721 30.7214 17.721C31.3541 17.721 31.8921 17.9427 32.3354 18.386C32.7785 18.8293 33 19.3673 33 20C33 20.6327 32.7785 21.1707 32.3354 21.614C31.8921 22.0573 31.3541 22.279 30.7214 22.279ZM11.2786 12.5576C10.6459 12.5576 10.1079 12.3359 9.66459 11.8926C9.22153 11.4493 9 10.9113 9 10.2786C9 9.64591 9.22153 9.10791 9.66459 8.66459C10.1079 8.22153 10.6459 8 11.2786 8C11.9113 8 12.4493 8.22153 12.8926 8.66459C13.3359 9.10791 13.5576 9.64591 13.5576 10.2786C13.5576 10.9113 13.3359 11.4493 12.8926 11.8926C12.4493 12.3359 11.9113 12.5576 11.2786 12.5576ZM21 12.5576C20.3673 12.5576 19.8293 12.3359 19.386 11.8926C18.9427 11.4493 18.721 10.9113 18.721 10.2786C18.721 9.64591 18.9427 9.10791 19.386 8.66459C19.8293 8.22153 20.3673 8 21 8C21.6327 8 22.1707 8.22153 22.614 8.66459C23.0573 9.10791 23.279 9.64591 23.279 10.2786C23.279 10.9113 23.0573 11.4493 22.614 11.8926C22.1707 12.3359 21.6327 12.5576 21 12.5576ZM30.7214 12.5576C30.0887 12.5576 29.5507 12.3359 29.1074 11.8926C28.6641 11.4493 28.4424 10.9113 28.4424 10.2786C28.4424 9.64591 28.6641 9.10791 29.1074 8.66459C29.5507 8.22153 30.0887 8 30.7214 8C31.3541 8 31.8921 8.22153 32.3354 8.66459C32.7785 9.10791 33 9.64591 33 10.2786C33 10.9113 32.7785 11.4493 32.3354 11.8926C31.8921 12.3359 31.3541 12.5576 30.7214 12.5576Z" fill="#1D1D1D"/>
</svg>
