<svg width="41" height="41" viewBox="0 0 41 41" fill="none" xmlns="http://www.w3.org/2000/svg">
<path d="M15.8417 31C15.4991 31 15.1777 30.9251 14.8775 30.7753C14.5771 30.6255 14.3286 30.4118 14.1321 30.1341L7 20.5L14.1181 10.8659C14.3146 10.5882 14.5629 10.3745 14.8632 10.2247C15.1636 10.0749 15.4851 10 15.8277 10H30.8609C31.449 10 31.9526 10.2156 32.3716 10.6468C32.7905 11.078 33 11.5924 33 12.19V28.81C33 29.4076 32.7905 29.922 32.3716 30.3532C31.9526 30.7844 31.449 31 30.8609 31H15.8417ZM9.15239 20.5L15.4998 29.0795C15.5436 29.1334 15.594 29.1738 15.6509 29.2006C15.7079 29.2275 15.7715 29.2409 15.8417 29.2409H30.8609C30.9836 29.2409 31.0843 29.2005 31.1632 29.1198C31.2421 29.0391 31.2815 28.9358 31.2815 28.81V12.19C31.2815 12.0642 31.2421 11.9609 31.1632 11.8802C31.0843 11.7995 30.9836 11.7591 30.8609 11.7591H15.8417C15.7715 11.7591 15.7079 11.7725 15.6509 11.7993C15.594 11.8262 15.5436 11.8665 15.4998 11.9204L9.15239 20.5ZM17.0956 21.7527C17.4398 21.7527 17.7305 21.6327 17.9678 21.3928C18.2051 21.153 18.3237 20.8554 18.3237 20.5C18.3237 20.1446 18.2044 19.847 17.9657 19.6072C17.7273 19.3673 17.4386 19.2474 17.0997 19.2474C16.7525 19.2474 16.4603 19.3673 16.223 19.6072C15.9857 19.847 15.867 20.1446 15.867 20.5C15.867 20.8554 15.9857 21.153 16.223 21.3928C16.4603 21.6327 16.7511 21.7527 17.0956 21.7527ZM22.0814 21.7527C22.4286 21.7527 22.7194 21.6327 22.9537 21.3928C23.188 21.153 23.3052 20.8554 23.3052 20.5C23.3052 20.1446 23.188 19.847 22.9537 19.6072C22.7194 19.3673 22.43 19.2474 22.0855 19.2474C21.7413 19.2474 21.4506 19.3673 21.2133 19.6072C20.976 19.847 20.8574 20.1446 20.8574 20.5C20.8574 20.8554 20.9767 21.153 21.2154 21.3928C21.4538 21.6327 21.7425 21.7527 22.0814 21.7527ZM27.0673 21.7527C27.4115 21.7527 27.7023 21.6327 27.9396 21.3928C28.1769 21.153 28.2955 20.8554 28.2955 20.5C28.2955 20.1446 28.1763 19.847 27.9379 19.6072C27.6992 19.3673 27.4105 19.2474 27.0718 19.2474C26.7244 19.2474 26.432 19.3673 26.1948 19.6072C25.9575 19.847 25.8388 20.1446 25.8388 20.5C25.8388 20.8554 25.9575 21.153 26.1948 21.3928C26.432 21.6327 26.7229 21.7527 27.0673 21.7527Z" fill="#1D1D1D"/>
</svg>
