<svg width="41" height="40" viewBox="0 0 41 40" fill="none" xmlns="http://www.w3.org/2000/svg">
<path d="M10.7288 32C10.0961 32 9.5581 31.7785 9.11478 31.3354C8.67172 30.8921 8.4502 30.3541 8.4502 29.7214C8.4502 29.0887 8.67172 28.5507 9.11478 28.1074C9.5581 27.6641 10.0961 27.4424 10.7288 27.4424C11.3615 27.4424 11.8995 27.6641 12.3428 28.1074C12.7861 28.5507 13.0078 29.0887 13.0078 29.7214C13.0078 30.3541 12.7861 30.8921 12.3428 31.3354C11.8995 31.7785 11.3615 32 10.7288 32ZM20.4502 32C19.8175 32 19.2795 31.7785 18.8362 31.3354C18.3929 30.8921 18.1712 30.3541 18.1712 29.7214C18.1712 29.0887 18.3929 28.5507 18.8362 28.1074C19.2795 27.6641 19.8175 27.4424 20.4502 27.4424C21.0829 27.4424 21.6209 27.6641 22.0642 28.1074C22.5075 28.5507 22.7292 29.0887 22.7292 29.7214C22.7292 30.3541 22.5075 30.8921 22.0642 31.3354C21.6209 31.7785 21.0829 32 20.4502 32ZM30.1716 32C29.5389 32 29.0009 31.7785 28.5576 31.3354C28.1143 30.8921 27.8926 30.3541 27.8926 29.7214C27.8926 29.0887 28.1143 28.5507 28.5576 28.1074C29.0009 27.6641 29.5389 27.4424 30.1716 27.4424C30.8043 27.4424 31.3423 27.6641 31.7856 28.1074C32.2287 28.5507 32.4502 29.0887 32.4502 29.7214C32.4502 30.3541 32.2287 30.8921 31.7856 31.3354C31.3423 31.7785 30.8043 32 30.1716 32ZM10.7288 22.279C10.0961 22.279 9.5581 22.0573 9.11478 21.614C8.67172 21.1707 8.4502 20.6327 8.4502 20C8.4502 19.3673 8.67172 18.8293 9.11478 18.386C9.5581 17.9427 10.0961 17.721 10.7288 17.721C11.3615 17.721 11.8995 17.9427 12.3428 18.386C12.7861 18.8293 13.0078 19.3673 13.0078 20C13.0078 20.6327 12.7861 21.1707 12.3428 21.614C11.8995 22.0573 11.3615 22.279 10.7288 22.279ZM20.4502 22.279C19.8175 22.279 19.2795 22.0573 18.8362 21.614C18.3929 21.1707 18.1712 20.6327 18.1712 20C18.1712 19.3673 18.3929 18.8293 18.8362 18.386C19.2795 17.9427 19.8175 17.721 20.4502 17.721C21.0829 17.721 21.6209 17.9427 22.0642 18.386C22.5075 18.8293 22.7292 19.3673 22.7292 20C22.7292 20.6327 22.5075 21.1707 22.0642 21.614C21.6209 22.0573 21.0829 22.279 20.4502 22.279ZM30.1716 22.279C29.5389 22.279 29.0009 22.0573 28.5576 21.614C28.1143 21.1707 27.8926 20.6327 27.8926 20C27.8926 19.3673 28.1143 18.8293 28.5576 18.386C29.0009 17.9427 29.5389 17.721 30.1716 17.721C30.8043 17.721 31.3423 17.9427 31.7856 18.386C32.2287 18.8293 32.4502 19.3673 32.4502 20C32.4502 20.6327 32.2287 21.1707 31.7856 21.614C31.3423 22.0573 30.8043 22.279 30.1716 22.279ZM10.7288 12.5576C10.0961 12.5576 9.5581 12.3359 9.11478 11.8926C8.67172 11.4493 8.4502 10.9113 8.4502 10.2786C8.4502 9.64591 8.67172 9.10791 9.11478 8.66459C9.5581 8.22153 10.0961 8 10.7288 8C11.3615 8 11.8995 8.22153 12.3428 8.66459C12.7861 9.10791 13.0078 9.64591 13.0078 10.2786C13.0078 10.9113 12.7861 11.4493 12.3428 11.8926C11.8995 12.3359 11.3615 12.5576 10.7288 12.5576ZM20.4502 12.5576C19.8175 12.5576 19.2795 12.3359 18.8362 11.8926C18.3929 11.4493 18.1712 10.9113 18.1712 10.2786C18.1712 9.64591 18.3929 9.10791 18.8362 8.66459C19.2795 8.22153 19.8175 8 20.4502 8C21.0829 8 21.6209 8.22153 22.0642 8.66459C22.5075 9.10791 22.7292 9.64591 22.7292 10.2786C22.7292 10.9113 22.5075 11.4493 22.0642 11.8926C21.6209 12.3359 21.0829 12.5576 20.4502 12.5576ZM30.1716 12.5576C29.5389 12.5576 29.0009 12.3359 28.5576 11.8926C28.1143 11.4493 27.8926 10.9113 27.8926 10.2786C27.8926 9.64591 28.1143 9.10791 28.5576 8.66459C29.0009 8.22153 29.5389 8 30.1716 8C30.8043 8 31.3423 8.22153 31.7856 8.66459C32.2287 9.10791 32.4502 9.64591 32.4502 10.2786C32.4502 10.9113 32.2287 11.4493 31.7856 11.8926C31.3423 12.3359 30.8043 12.5576 30.1716 12.5576Z" fill="#325EE6"/>
</svg>
