<svg width="41" height="41" viewBox="0 0 41 41" fill="none" xmlns="http://www.w3.org/2000/svg">
<path d="M26.211 34L15.8191 30.341L8.83817 33.0792C8.39116 33.2866 7.96263 33.2577 7.55258 32.9924C7.14253 32.7274 6.9375 32.3427 6.9375 31.8383V10.1831C6.9375 9.85635 7.02505 9.56308 7.20016 9.30332C7.37499 9.04355 7.61476 8.85521 7.91948 8.73829L15.8191 6L26.211 9.63133L33.1642 6.9038C33.6112 6.70774 34.0398 6.73159 34.4498 6.97536C34.8599 7.21885 35.0649 7.58741 35.0649 8.08101V30.0038C35.0649 30.3113 34.9695 30.5792 34.7787 30.8075C34.5876 31.0359 34.3435 31.2027 34.0465 31.308L26.211 34ZM25.0826 31.4292V11.3264L16.9198 8.52195V28.6248L25.0826 31.4292ZM27.1611 31.4292L32.986 29.5075V9.12876L27.1611 11.3264V31.4292ZM9.01645 30.8435L14.8413 28.6248V8.52195L9.01645 10.4756V30.8435Z" fill="#1D1D1D"/>
</svg>
