<svg width="41" height="41" viewBox="0 0 41 41" fill="none" xmlns="http://www.w3.org/2000/svg">
<path d="M16.1695 22.2117H18.8407V17.7458H22.3232V22.2117H24.9945V14.9679L20.582 12.0429L16.1695 14.9679V22.2117ZM20.582 33.9029C23.9895 30.8601 26.589 27.9532 28.3807 25.1821C30.1724 22.4113 31.0682 19.9883 31.0682 17.9133C31.0682 14.7511 30.0633 12.1546 28.0536 10.1237C26.0439 8.09319 23.5533 7.07792 20.582 7.07792C17.6106 7.07792 15.12 8.09319 13.1103 10.1237C11.1006 12.1546 10.0957 14.7511 10.0957 17.9133C10.0957 19.9883 11.002 22.4113 12.8145 25.1821C14.6267 27.9532 17.2158 30.8601 20.582 33.9029ZM20.582 36.6825C16.3875 33.0481 13.2422 29.6657 11.1461 26.5354C9.05001 23.4049 8.00195 20.5308 8.00195 17.9133C8.00195 14.0672 9.24598 10.9535 11.734 8.57208C14.2224 6.19069 17.1717 5 20.582 5C23.9922 5 26.9415 6.19069 29.4299 8.57208C31.9179 10.9535 33.162 14.0672 33.162 17.9133C33.162 20.5308 32.1139 23.4049 30.0178 26.5354C27.9217 29.6657 24.7764 33.0481 20.582 36.6825Z" fill="#1D1D1D"/>
</svg>
