<svg width="18" height="18" viewBox="0 0 18 18" fill="none" xmlns="http://www.w3.org/2000/svg">
<rect width="16.6667" height="16.6667" rx="8.33333" transform="matrix(1 0 0 -1 0.666504 17.334)" fill="#1D1D1D"/>
<path d="M8.91618 6.86914C9.46846 6.86914 9.91618 6.42143 9.91618 5.86914C9.91618 5.31686 9.46846 4.86914 8.91618 4.86914C8.36389 4.86914 7.91618 5.31686 7.91618 5.86914C7.91618 6.42143 8.36389 6.86914 8.91618 6.86914Z" fill="white"/>
<path d="M7.69951 7.69425C7.58905 7.69425 7.49951 7.7838 7.49951 7.89425V8.49425C7.49951 8.60471 7.58905 8.69425 7.69951 8.69425H8.21748C8.32794 8.69425 8.41748 8.7838 8.41748 8.89425V11.9964H7.5335C7.42304 11.9964 7.3335 12.086 7.3335 12.1964V12.7964C7.3335 12.9069 7.42304 12.9964 7.5335 12.9964H10.4668C10.5773 12.9964 10.6668 12.9069 10.6668 12.7964V12.1964C10.6668 12.086 10.5773 11.9964 10.4668 11.9964H9.91748V7.89425C9.91748 7.7838 9.82794 7.69425 9.71748 7.69425H7.69951Z" fill="white"/>
</svg>
