<svg width="24" height="24" viewBox="0 0 24 24" fill="none" xmlns="http://www.w3.org/2000/svg">
<path fill-rule="evenodd" clip-rule="evenodd" d="M22 11.9992C22 12.2168 21.9113 12.4251 21.7545 12.5759L16.5545 17.5759C16.236 17.8821 15.7296 17.8722 15.4233 17.5537C15.1171 17.2352 15.127 16.7288 15.4455 16.4226L19.2138 12.7992L2.80078 12.7992C2.35896 12.7992 2.00078 12.441 2.00078 11.9992C2.00078 11.5574 2.35896 11.1992 2.80078 11.1992L19.2138 11.1992L15.4455 7.57589C15.127 7.26965 15.1171 6.76322 15.4233 6.44473C15.7296 6.12625 16.236 6.11632 16.5545 6.42255L21.7545 11.4226C21.9113 11.5734 22 11.7816 22 11.9992Z" fill="#325EE6"/>
</svg>
