<svg width="18" height="18" viewBox="0 0 18 18" fill="none" xmlns="http://www.w3.org/2000/svg">
<path d="M0.666016 7.33333C0.666016 5.94444 0.975043 4.67014 1.5931 3.51042C2.21115 2.35069 3.04102 1.38889 4.08268 0.625L5.06185 1.95833C4.22852 2.56944 3.56532 3.34028 3.07227 4.27083C2.57921 5.20139 2.33268 6.22222 2.33268 7.33333H0.666016ZM15.666 7.33333C15.666 6.22222 15.4195 5.20139 14.9264 4.27083C14.4334 3.34028 13.7702 2.56944 12.9368 1.95833L13.916 0.625C14.9577 1.38889 15.7875 2.35069 16.4056 3.51042C17.0237 4.67014 17.3327 5.94444 17.3327 7.33333H15.666ZM2.33268 14.8333V13.1667H3.99935V7.33333C3.99935 6.18056 4.34657 5.15625 5.04102 4.26042C5.73546 3.36458 6.63824 2.77778 7.74935 2.5V1.91667C7.74935 1.56944 7.87088 1.27431 8.11393 1.03125C8.35699 0.788194 8.65213 0.666667 8.99935 0.666667C9.34657 0.666667 9.64171 0.788194 9.88476 1.03125C10.1278 1.27431 10.2493 1.56944 10.2493 1.91667V2.5C11.3605 2.77778 12.2632 3.36458 12.9577 4.26042C13.6521 5.15625 13.9993 6.18056 13.9993 7.33333V13.1667H15.666V14.8333H2.33268ZM8.99935 17.3333C8.54102 17.3333 8.14865 17.1701 7.82227 16.8438C7.49588 16.5174 7.33268 16.125 7.33268 15.6667H10.666C10.666 16.125 10.5028 16.5174 10.1764 16.8438C9.85004 17.1701 9.45768 17.3333 8.99935 17.3333ZM5.66602 13.1667H12.3327V7.33333C12.3327 6.41667 12.0063 5.63194 11.3535 4.97917C10.7007 4.32639 9.91601 4 8.99935 4C8.08268 4 7.29796 4.32639 6.64518 4.97917C5.9924 5.63194 5.66602 6.41667 5.66602 7.33333V13.1667Z" fill="#1D1D1D"/>
</svg>
