<svg width="16" height="17" viewBox="0 0 16 17" fill="none" xmlns="http://www.w3.org/2000/svg">
<path d="M1.45312 10.1318C5.54549 7.45229 10.856 7.52993 14.8682 10.3281C15.2636 10.6039 15.499 11.056 15.499 11.5381V15.001C15.499 15.8294 14.8274 16.501 13.999 16.501H2C1.17161 16.501 0.500056 15.8294 0.5 15.001V11.5664C0.50009 11.0606 0.755537 10.5886 1.17871 10.3115L1.45312 10.1318ZM14.1055 11.4219C10.5399 8.93512 5.82048 8.86586 2.18359 11.2471L1.90918 11.4268C1.86223 11.4575 1.8331 11.5103 1.83301 11.5664V15.001C1.83306 15.093 1.90799 15.168 2 15.168H13.999C14.091 15.168 14.166 15.093 14.166 15.001V11.5381C14.166 11.4919 14.1434 11.4483 14.1055 11.4219ZM8 0.667969C9.84095 0.667969 11.333 2.16003 11.333 4.00098C11.333 5.84193 9.84095 7.33398 8 7.33398C6.15905 7.33398 4.66699 5.84193 4.66699 4.00098C4.66699 2.16003 6.15905 0.667969 8 0.667969ZM8 2.00098C6.89543 2.00098 6 2.89641 6 4.00098C6 5.10555 6.89543 6.00098 8 6.00098C9.10457 6.00098 10 5.10555 10 4.00098C10 2.89641 9.10457 2.00098 8 2.00098Z" fill="#1D1D1D"/>
</svg>
