<svg width="30" height="30" viewBox="0 0 30 30" fill="none" xmlns="http://www.w3.org/2000/svg">
<path d="M26.667 0C28.5077 0.000176245 29.9998 1.49232 30 3.33301V26.667C29.9998 28.5077 28.5077 29.9998 26.667 30H3.33301C1.49232 29.9998 0.000176245 28.5077 0 26.667V3.33301C0.000175752 1.49232 1.49232 0.000175859 3.33301 0H26.667ZM3.33301 2.66699C2.96508 2.66717 2.66717 2.96508 2.66699 3.33301V26.667C2.66717 27.0349 2.96508 27.3328 3.33301 27.333H26.667C27.0349 27.3328 27.3328 27.0349 27.333 26.667V3.33301C27.3328 2.96508 27.0349 2.66717 26.667 2.66699H3.33301ZM15 16.167C16.8118 16.167 18.5944 16.6765 20.0449 17.6436C21.4975 18.6121 22.5579 20.0034 22.9609 21.6221C23.1388 22.3365 22.7036 23.0602 21.9893 23.2383C21.2747 23.4162 20.551 22.9811 20.373 22.2666C20.1516 21.3769 19.5425 20.5137 18.5654 19.8623C17.586 19.2094 16.3265 18.833 15 18.833C13.6735 18.833 12.414 19.2094 11.4346 19.8623C10.4575 20.5137 9.84844 21.3769 9.62695 22.2666C9.44902 22.9811 8.72528 23.4162 8.01074 23.2383C7.29645 23.0602 6.86121 22.3365 7.03906 21.6221C7.44209 20.0034 8.5025 18.6121 9.95508 17.6436C11.4056 16.6765 13.1882 16.167 15 16.167ZM15 6.16699C17.5772 6.167 19.6668 8.25584 19.667 10.833C19.667 13.4103 17.5773 15.5 15 15.5C12.4227 15.5 10.333 13.4103 10.333 10.833C10.3332 8.25584 12.4228 6.16699 15 6.16699ZM15 8.83301C13.8955 8.83301 13.0002 9.7286 13 10.833C13 11.9376 13.8954 12.833 15 12.833C16.1046 12.833 17 11.9376 17 10.833C16.9998 9.7286 16.1045 8.83301 15 8.83301Z" fill="#333333"/>
</svg>
