<svg width="40" height="40" viewBox="0 0 40 40" fill="none" xmlns="http://www.w3.org/2000/svg">
<path d="M10.4961 4.49976C13.6851 4.49992 16.3446 6.76399 16.957 9.77222H23.0459C23.6625 6.76927 26.3205 4.51058 29.5059 4.5105C33.1479 4.51058 36.1005 7.46318 36.1006 11.1052C36.1006 14.7473 33.1479 17.6997 29.5059 17.7C28.1679 17.7 26.9235 17.3007 25.8838 16.616L16.4453 26.0535C16.6738 26.5296 16.8479 27.037 16.957 27.5681H23.0527C23.6707 24.567 26.3276 22.3103 29.5117 22.3103C33.1537 22.3105 36.1063 25.263 36.1064 28.905C36.1065 32.5472 33.1539 35.4997 29.5117 35.4998C26.3248 35.4998 23.6658 33.2393 23.0508 30.2341H16.957C16.3411 33.2379 13.683 35.4968 10.4971 35.4968C6.85487 35.4969 3.90234 32.5443 3.90234 28.9021C3.9026 25.2601 6.85503 22.3074 10.4971 22.3074C12.1473 22.3074 13.6549 22.915 14.8115 23.9167L23.9971 14.7312C23.545 14.0457 23.2168 13.2713 23.0459 12.4392H16.9521C16.3312 15.4363 13.6773 17.689 10.4961 17.6892C6.8539 17.6893 3.90039 14.7367 3.90039 11.0945C3.90054 7.45242 6.85398 4.4998 10.4961 4.49976ZM29.5117 24.9773C27.8117 24.9773 26.3633 26.0568 25.8164 27.5681H29.5088C30.2451 27.5681 30.8417 28.1648 30.8418 28.9011C30.8418 29.6375 30.2452 30.2341 29.5088 30.2341H25.8145C26.3593 31.7494 27.8088 32.8328 29.5117 32.8328C31.6811 32.8327 33.4395 31.0744 33.4395 28.905C33.4393 26.7358 31.681 24.9775 29.5117 24.9773ZM10.4971 24.9744C8.32772 24.9744 6.5686 26.7329 6.56836 28.9021C6.56836 31.0715 8.32756 32.8308 10.4971 32.8308C12.6666 32.8308 14.4248 31.0715 14.4248 28.9021C14.4246 26.7329 12.6664 24.9744 10.4971 24.9744ZM29.5059 7.17749C27.3365 7.17755 25.5773 8.93595 25.5771 11.1052C25.5771 13.2747 27.3364 15.034 29.5059 15.0339C31.6751 15.0337 33.4336 13.2746 33.4336 11.1052C33.4335 8.93597 31.6751 7.17761 29.5059 7.17749ZM10.4961 7.16675C8.32668 7.16677 6.56752 8.92521 6.56738 11.0945C6.56738 13.2639 8.32659 15.0232 10.4961 15.0232C12.1931 15.023 13.6385 13.9463 14.1875 12.4392H11.1475C10.4111 12.4392 9.81357 11.8425 9.81348 11.1062C9.81348 10.3698 10.4111 9.77222 11.1475 9.77222H14.1953C13.6524 8.2536 12.2013 7.16691 10.4961 7.16675Z" fill="#333333"/>
</svg>
