<svg width="40" height="40" viewBox="0 0 40 40" fill="none" xmlns="http://www.w3.org/2000/svg">
<path d="M27.2168 35.6119C26.5302 35.6119 25.8731 35.4788 25.2456 35.2127C24.6178 34.9466 24.0863 34.5456 23.651 34.0098L15.3068 23.8019L16.8318 22.2373C17.3124 21.7576 17.8856 21.4809 18.5514 21.4073C19.2172 21.334 19.8688 21.4158 20.506 21.6527L25.7881 23.7615V14.0102H29.2189C30.9756 14.0102 32.5125 14.6488 33.8297 15.926C35.1472 17.2033 35.806 18.7684 35.806 20.6215V29.1198C35.806 30.9301 35.1752 32.4647 33.9135 33.7235C32.6515 34.9824 31.1163 35.6119 29.3077 35.6119H27.2168ZM9.94141 33.9452C9.06668 33.9452 8.32196 33.6378 7.70724 33.0231C7.09252 32.4084 6.78516 31.6635 6.78516 30.7885V8.21021C6.78516 7.33354 7.09252 6.58715 7.70724 5.97104C8.32196 5.35493 9.06668 5.04688 9.94141 5.04688H25.7847C26.6547 5.04688 27.3984 5.35493 28.0156 5.97104C28.6325 6.58715 28.941 7.33354 28.941 8.21021V14.0102H25.7881V8.20021H9.93141V30.7985H21.0347L23.5764 33.9452H9.94141ZM17.8647 13.8419C18.2822 13.8419 18.6284 13.702 18.9031 13.4223C19.1778 13.1423 19.3152 12.7955 19.3152 12.3819C19.3152 11.9644 19.1761 11.6183 18.8981 11.3435C18.62 11.0688 18.2734 10.9315 17.8581 10.9315C17.4428 10.9315 17.0967 11.0705 16.8197 11.3485C16.5428 11.6266 16.4043 11.9731 16.4043 12.3881C16.4043 12.8034 16.5443 13.1495 16.8243 13.4265C17.104 13.7034 17.4509 13.8419 17.8647 13.8419ZM27.2547 32.6215H29.3077C30.2865 32.6215 31.1149 32.2801 31.7927 31.5973C32.4702 30.9145 32.8089 30.0887 32.8089 29.1198V20.6215C32.8089 19.6167 32.4614 18.7637 31.7664 18.0623C31.0711 17.3612 30.2215 17.0106 29.2177 17.0106H28.8743V28.5185L20.0106 24.6994L25.8181 31.969C25.9917 32.1878 26.2063 32.3513 26.4618 32.4594C26.7177 32.5674 26.982 32.6215 27.2547 32.6215Z" fill="#333333"/>
</svg>
