<svg width="12" height="13" viewBox="0 0 12 13" fill="none" xmlns="http://www.w3.org/2000/svg">
<path d="M0.23327 4.934L5.5666 0.371036C5.81611 0.157572 6.18389 0.157571 6.4334 0.371036L11.7667 4.934C11.9148 5.06066 12 5.24574 12 5.44057V11.4669C12 11.8351 11.7015 12.1336 11.3333 12.1336H8.16667C7.79848 12.1336 7.5 11.8351 7.5 11.4669V8.46704C7.5 8.28294 7.35076 8.1337 7.16667 8.1337H4.83333C4.64924 8.1337 4.5 8.28294 4.5 8.46704V11.4669C4.5 11.8351 4.20152 12.1336 3.83333 12.1336H0.666667C0.298477 12.1336 0 11.8351 0 11.4669V5.44057C0 5.24574 0.0852277 5.06066 0.23327 4.934Z" fill="#33363D"/>
</svg>
