<svg width="14" height="14" viewBox="0 0 14 14" fill="none" xmlns="http://www.w3.org/2000/svg">
<path d="M12.5253 0.529247C12.7855 0.269115 13.2073 0.269221 13.4676 0.529247C13.728 0.789588 13.728 1.21225 13.4676 1.47261L7.9403 6.99897L13.4715 12.5302C13.7316 12.7905 13.7315 13.2123 13.4715 13.4726C13.2112 13.7329 12.7885 13.733 12.5282 13.4726L6.99791 7.94233L1.46764 13.4726C1.2073 13.7329 0.785606 13.7329 0.525256 13.4726C0.265067 13.2123 0.26497 12.7905 0.525256 12.5302L6.05455 6.99897L0.528186 1.47261C0.267862 1.21227 0.267883 0.789593 0.528186 0.529247C0.788543 0.268905 1.2112 0.268889 1.47155 0.529247L6.99791 6.05561L12.5253 0.529247Z" fill="#33363D"/>
</svg>
