<svg width="20" height="20" viewBox="0 0 20 20" fill="none" xmlns="http://www.w3.org/2000/svg">
<path fill-rule="evenodd" clip-rule="evenodd" d="M13.6953 2.02729C13.9556 1.76694 14.3777 1.76694 14.6381 2.02729L17.9714 5.36063C18.0964 5.48565 18.1667 5.65522 18.1667 5.83203C18.1667 6.00884 18.0964 6.17841 17.9714 6.30344L10.4714 13.8034C10.3464 13.9285 10.1768 13.9987 10 13.9987H6.66667C6.29848 13.9987 6 13.7002 6 13.332V9.9987C6 9.82189 6.07024 9.65232 6.19526 9.52729L13.6953 2.02729ZM14.1667 3.44151L12.6095 4.9987L15 7.38922L16.5572 5.83203L14.1667 3.44151ZM14.0572 8.33203L11.6667 5.94151L7.33333 10.2748V12.6654H9.72386L14.0572 8.33203ZM4 3.83203C3.90795 3.83203 3.83333 3.90665 3.83333 3.9987V15.9987C3.83333 16.0907 3.90795 16.1654 4 16.1654H16C16.092 16.1654 16.1667 16.0907 16.1667 15.9987V10.1654C16.1667 9.79718 16.4651 9.4987 16.8333 9.4987C17.2015 9.4987 17.5 9.79718 17.5 10.1654V15.9987C17.5 16.8271 16.8284 17.4987 16 17.4987H4C3.17157 17.4987 2.5 16.8271 2.5 15.9987V3.9987C2.5 3.17027 3.17157 2.4987 4 2.4987H9.83268C10.2009 2.4987 10.4993 2.79717 10.4993 3.16536C10.4993 3.53355 10.2009 3.83203 9.83268 3.83203H4Z" fill="#33363D"/>
</svg>
