<svg width="20" height="20" viewBox="0 0 20 20" fill="none" xmlns="http://www.w3.org/2000/svg">
<path d="M7.54813 14.5859C7.12715 14.5859 6.77083 14.4401 6.47917 14.1484C6.1875 13.8568 6.04167 13.5005 6.04167 13.0795V3.5924C6.04167 3.17142 6.1875 2.8151 6.47917 2.52344C6.77083 2.23177 7.12715 2.08594 7.54813 2.08594H14.5352C14.9562 2.08594 15.3125 2.23177 15.6042 2.52344C15.8958 2.8151 16.0417 3.17142 16.0417 3.5924V13.0795C16.0417 13.5005 15.8958 13.8568 15.6042 14.1484C15.3125 14.4401 14.9562 14.5859 14.5352 14.5859H7.54813ZM7.54813 13.3359H14.5352C14.5994 13.3359 14.6581 13.3092 14.7115 13.2557C14.7649 13.2024 14.7917 13.1436 14.7917 13.0795V3.5924C14.7917 3.52823 14.7649 3.46948 14.7115 3.41615C14.6581 3.36267 14.5994 3.33594 14.5352 3.33594H7.54813C7.48396 3.33594 7.42521 3.36267 7.37188 3.41615C7.3184 3.46948 7.29167 3.52823 7.29167 3.5924V13.0795C7.29167 13.1436 7.3184 13.2024 7.37188 13.2557C7.42521 13.3092 7.48396 13.3359 7.54813 13.3359ZM4.63146 17.5026C4.21049 17.5026 3.85417 17.3568 3.5625 17.0651C3.27083 16.7734 3.125 16.4171 3.125 15.9961V5.25906H4.375V15.9961C4.375 16.0603 4.40174 16.1191 4.45521 16.1724C4.50854 16.2259 4.56729 16.2526 4.63146 16.2526H12.8685V17.5026H4.63146Z" fill="#333333"/>
</svg>
