<svg width="24" height="22" viewBox="0 0 24 22" fill="none" xmlns="http://www.w3.org/2000/svg">
<path fill-rule="evenodd" clip-rule="evenodd" d="M7.02846 0.000833063C7.04667 7.88586e-05 7.0649 -0.000163362 7.08313 0.000106908C8.27203 0.017733 9.43765 0.333967 10.4626 0.920145C11.0607 1.26219 11.554 1.7829 11.9417 2.27957C11.9896 2.34093 12.0366 2.40284 12.0826 2.46505C12.1286 2.40284 12.1756 2.34093 12.2235 2.27957C12.6112 1.7829 13.1044 1.26219 13.7025 0.920145C14.7275 0.333966 15.8931 0.017733 17.082 0.000106908C17.1003 -0.000163362 17.1185 7.88586e-05 17.1367 0.000833063C19.0155 0.0786356 20.7954 0.862046 22.0841 2.19433C23.3699 3.52358 24.0617 5.29227 23.9947 7.11788C23.9893 8.84308 23.2639 10.5854 22.2823 12.1739C21.2885 13.7822 19.9746 15.3247 18.6724 16.6635C16.0721 19.3367 13.4168 21.3005 13.1537 21.4781L13.1534 21.4783L12.6265 21.8337C12.2978 22.0554 11.8674 22.0554 11.5386 21.8337L11.0117 21.4783L11.0092 21.4766C10.7484 21.2995 8.09357 19.3364 5.49285 16.6629C4.19061 15.3242 2.87671 13.7819 1.88291 12.1737C0.901303 10.5853 0.175842 8.84308 0.170464 7.11786C0.103489 5.29226 0.795302 3.52357 2.08108 2.19433C3.36981 0.862046 5.14971 0.0786356 7.02846 0.000833063ZM7.08156 1.94593C5.69783 2.0101 4.40519 2.59 3.47947 3.547C2.5492 4.50872 2.06425 5.77227 2.11523 7.06007C2.11574 7.07289 2.116 7.08572 2.116 7.09855C2.116 8.31043 2.63724 9.69345 3.53794 11.1509C4.43009 12.5946 5.63966 14.0236 6.88743 15.3063C8.13171 16.5854 9.3927 17.6974 10.3705 18.5084C10.8587 18.9133 11.2744 19.2415 11.5795 19.4762C11.732 19.5936 11.8564 19.6872 11.9477 19.7548C11.9935 19.7887 12.0303 19.8156 12.0578 19.8355L12.0827 19.8533L12.1081 19.8351C12.1355 19.8154 12.1722 19.7886 12.2179 19.7548C12.3091 19.6873 12.4334 19.5939 12.5859 19.4766C12.8909 19.2421 13.3065 18.9139 13.7947 18.5091C14.7725 17.6982 16.0334 16.5862 17.2777 15.307C18.5255 14.0241 19.7351 12.595 20.6272 11.1512C21.5279 9.69357 22.0492 8.31044 22.0492 7.09855C22.0492 7.08572 22.0494 7.07289 22.0499 7.06007C22.1009 5.77227 21.616 4.50872 20.6857 3.547C19.76 2.59 18.4673 2.0101 17.0836 1.94593C16.229 1.96313 15.3964 2.19272 14.6684 2.60903C14.3861 2.77044 14.0766 3.06744 13.7572 3.47665C13.4446 3.87708 13.1652 4.32901 12.9238 4.74465C12.7497 5.04444 12.4293 5.22894 12.0826 5.22894C11.7359 5.22894 11.4154 5.04444 11.2414 4.74465C11 4.32901 10.7205 3.87708 10.408 3.47665C10.0886 3.06744 9.77903 2.77044 9.49678 2.60903C8.76882 2.19272 7.93615 1.96313 7.08156 1.94593Z" fill="#333333"/>
</svg>
