<svg width="41" height="41" viewBox="0 0 41 41" fill="none" xmlns="http://www.w3.org/2000/svg">
<path d="M19.5761 31.6914V20.526L9.84779 14.8815V25.792C9.84779 25.8675 9.86654 25.9383 9.90404 26.0045C9.94179 26.0709 9.99841 26.1277 10.0739 26.1749L19.5761 31.6914ZM21.4239 31.6914L30.9261 26.1749C31.0016 26.1277 31.0582 26.0709 31.096 26.0045C31.1335 25.9383 31.1522 25.8675 31.1522 25.792V14.8664L21.4239 20.5219V31.6914ZM20.5 18.9484L30.1033 13.3534L20.7261 7.91026C20.6509 7.8692 20.5755 7.84867 20.5 7.84867C20.4245 7.84867 20.3491 7.8692 20.2739 7.91026L10.8816 13.3534L20.5 18.9484ZM9.15 27.7893C8.78407 27.5769 8.50086 27.2932 8.30037 26.9384C8.10012 26.5838 8 26.201 8 25.7898V14.2102C8 13.799 8.10012 13.4162 8.30037 13.0616C8.50086 12.7068 8.78407 12.4231 9.15 12.2107L19.35 6.30836C19.7174 6.10279 20.1021 6 20.504 6C20.906 6 21.288 6.10279 21.65 6.30836L31.85 12.2107C32.2159 12.4231 32.4991 12.7068 32.6996 13.0616C32.8999 13.4162 33 13.799 33 14.2102V25.7898C33 26.201 32.8999 26.5838 32.6996 26.9384C32.4991 27.2932 32.2159 27.5769 31.85 27.7893L21.65 33.6916C21.2826 33.8972 20.8979 34 20.496 34C20.094 34 19.712 33.8972 19.35 33.6916L9.15 27.7893Z" fill="#1D1D1D"/>
</svg>
