<svg width="14" height="12" viewBox="0 0 14 12" fill="none" xmlns="http://www.w3.org/2000/svg">
<path d="M13.1338 8.13379C13.4282 8.13396 13.667 8.37255 13.667 8.66699V10.7998C13.667 11.0942 13.4282 11.3338 13.1338 11.334H0.867188C0.725877 11.3339 0.590204 11.2776 0.490234 11.1777C0.390211 11.0777 0.33395 10.9413 0.333984 10.7998L0.334961 8.66699C0.335033 8.37244 0.573612 8.13372 0.868164 8.13379C1.1626 8.13397 1.4014 8.37254 1.40137 8.66699L1.40039 10.2666H12.6006V8.66699C12.6006 8.37244 12.8392 8.13379 13.1338 8.13379ZM7 0C7.29451 0 7.53313 0.238711 7.5332 0.533203V7.00879L9.94922 4.49707C10.1534 4.28481 10.4908 4.27829 10.7031 4.48242C10.9153 4.68659 10.9219 5.02404 10.7178 5.23633L7.38477 8.70312C7.28421 8.8077 7.14508 8.86621 7 8.86621C6.85497 8.86618 6.71576 8.80767 6.61523 8.70312L3.28223 5.23633C3.07821 5.02408 3.0848 4.68658 3.29688 4.48242C3.50913 4.27833 3.84661 4.28494 4.05078 4.49707L6.4668 7.00879V0.533203C6.46687 0.238755 6.70555 7.08449e-05 7 0Z" fill="#33363D"/>
</svg>
