<svg width="18" height="10" viewBox="0 0 18 10" fill="none" xmlns="http://www.w3.org/2000/svg">
<path fill-rule="evenodd" clip-rule="evenodd" d="M17.334 5.00033C17.334 5.18167 17.2601 5.35519 17.1294 5.48088L12.7961 9.64755C12.5307 9.90274 12.1086 9.89447 11.8534 9.62906C11.5982 9.36366 11.6065 8.94163 11.8719 8.68644L15.0121 5.66699L1.33464 5.66699C0.966446 5.66699 0.66797 5.36852 0.66797 5.00033C0.66797 4.63214 0.966446 4.33366 1.33464 4.33366L15.0121 4.33366L11.8719 1.31421C11.6065 1.05902 11.5982 0.63699 11.8534 0.371587C12.1086 0.106184 12.5307 0.0979085 12.7961 0.353104L17.1294 4.51977C17.2601 4.64546 17.334 4.81898 17.334 5.00033Z" fill="#33363D"/>
</svg>
