<svg width="41" height="41" viewBox="0 0 41 41" fill="none" xmlns="http://www.w3.org/2000/svg">
<path d="M18.9884 21.2552C19.3204 21.2552 19.5957 21.1406 19.8141 20.9113C20.0323 20.6819 20.1414 20.4105 20.1414 20.0973C20.1414 19.7639 20.0323 19.4875 19.8141 19.2682C19.5957 19.0491 19.3204 18.9395 18.9884 18.9395C18.6765 18.9395 18.4063 19.0491 18.1778 19.2682C17.9495 19.4875 17.8354 19.7639 17.8354 20.0973C17.8354 20.4105 17.9495 20.6819 18.1778 20.9113C18.4063 21.1406 18.6765 21.2552 18.9884 21.2552ZM12.5738 33V31.0927L23.1359 29.6392V11.8119C23.1359 11.3454 22.9954 10.9406 22.7145 10.5976C22.4339 10.2543 22.074 10.0573 21.6349 10.0067L13.039 8.89176V7L21.998 8.25915C22.8695 8.37527 23.5935 8.76969 24.1702 9.4424C24.7467 10.1151 25.0349 10.8923 25.0349 11.774V31.2464L12.5738 33ZM8 33V31.0927H10.6744V9.37447C10.6744 8.69442 10.9056 8.12873 11.3679 7.67739C11.83 7.2258 12.387 7 13.039 7H27.961C28.6382 7 29.2015 7.2258 29.651 7.67739C30.1007 8.12873 30.3256 8.69442 30.3256 9.37447V31.0927H33V33H8ZM12.5738 31.0927H28.4262V9.37447C28.4262 9.23811 28.3826 9.12616 28.2954 9.03862C28.2083 8.95109 28.0968 8.90732 27.961 8.90732H13.039C12.9032 8.90732 12.7917 8.94843 12.7046 9.03065C12.6174 9.11313 12.5738 9.22255 12.5738 9.35891V31.0927Z" fill="#1D1D1D"/>
</svg>
