<svg width="41" height="41" viewBox="0 0 41 41" fill="none" xmlns="http://www.w3.org/2000/svg">
<path d="M15.8374 21.8757H18.5087V17.4099H21.9912V21.8757H24.6624V14.632L20.2499 11.707L15.8374 14.632V21.8757ZM20.2499 33.567C23.6574 30.5242 26.257 27.6173 28.0487 24.8461C29.8403 22.0753 30.7362 19.6524 30.7362 17.5774C30.7362 14.4152 29.7313 11.8186 27.7216 9.78781C25.7119 7.75726 23.2213 6.74198 20.2499 6.74198C17.2785 6.74198 14.788 7.75726 12.7783 9.78781C10.7685 11.8186 9.76367 14.4152 9.76367 17.5774C9.76367 19.6524 10.6699 22.0753 12.4824 24.8461C14.2946 27.6173 16.8838 30.5242 20.2499 33.567ZM20.2499 36.3466C16.0555 32.7121 12.9102 29.3298 10.8141 26.1995C8.71798 23.0689 7.66992 20.1949 7.66992 17.5774C7.66992 13.7313 8.91395 10.6175 11.402 8.23615C13.8903 5.85476 16.8396 4.66406 20.2499 4.66406C23.6602 4.66406 26.6095 5.85476 29.0978 8.23615C31.5859 10.6175 32.8299 13.7313 32.8299 17.5774C32.8299 20.1949 31.7819 23.0689 29.6858 26.1995C27.5896 29.3298 24.4444 32.7121 20.2499 36.3466Z" fill="#1D1D1D"/>
</svg>
