<svg width="8" height="8" viewBox="0 0 8 8" fill="none" xmlns="http://www.w3.org/2000/svg">
<path d="M6.6218 0.623007C6.83008 0.414727 7.16841 0.414727 7.37668 0.623007C7.5847 0.831202 7.58462 1.16866 7.37668 1.37691L4.75266 3.99996L7.37571 6.62301C7.58369 6.83119 7.5836 7.16867 7.37571 7.37691C7.16743 7.58519 6.82911 7.58519 6.62083 7.37691L3.99876 4.75484L1.37668 7.37691C1.16841 7.58519 0.830081 7.58519 0.621802 7.37691C0.413913 7.16867 0.413825 6.83119 0.621802 6.62301L3.24387 3.99996L0.620826 1.37691C0.412893 1.16866 0.412806 0.831202 0.620826 0.623007C0.829105 0.414727 1.16743 0.414727 1.37571 0.623007L3.99876 3.24605L6.6218 0.623007Z" fill="#33363D"/>
</svg>
