<svg width="16" height="16" viewBox="0 0 16 16" fill="none" xmlns="http://www.w3.org/2000/svg">
<path d="M7.08203 0C10.994 1.12743e-07 14.165 3.17197 14.165 7.08398C14.165 8.7992 13.5545 10.3711 12.54 11.5967L15.3047 14.3623C15.565 14.6227 15.565 15.0443 15.3047 15.3047C15.0443 15.5648 14.6226 15.565 14.3623 15.3047L11.5977 12.54C10.3717 13.5558 8.79847 14.167 7.08203 14.167C3.17012 14.167 -0.000800502 10.9959 -0.000976562 7.08398C-0.000976562 3.17197 3.17001 0 7.08203 0ZM7.08203 1.33398C3.90639 1.33398 1.33203 3.90835 1.33203 7.08398C1.33221 10.2595 3.9065 12.834 7.08203 12.834C8.59869 12.834 9.97648 12.2446 11.0039 11.2852C11.0345 11.2266 11.0728 11.1703 11.1221 11.1211C11.1713 11.0719 11.2275 11.0345 11.2861 11.0039C12.2443 9.97678 12.8319 8.59945 12.832 7.08398C12.832 3.90835 10.2577 1.33398 7.08203 1.33398Z" fill="#33363D"/>
</svg>
